<?xml version="1.0" encoding="iso-8859-1"?>
<!-- Generator: Adobe Illustrator 19.0.0, SVG Export Plug-In . SVG Version: 6.00 Build 0)  -->
<svg version="1.1" id="Capa_1" xmlns="http://www.w3.org/2000/svg" xmlns:xlink="http://www.w3.org/1999/xlink" x="0px" y="0px"
	 viewBox="0 0 512 512" style="enable-background:new 0 0 512 512;" xml:space="preserve">
<rect style="fill:#D80027;" width="512" height="512"/>
<g>
	<polygon style="fill:#F0F0F0;" points="255.767,203.717 279.226,236.043 317.217,223.724 293.722,256.023 317.178,288.349 
		279.199,275.985 255.704,308.283 255.728,268.344 217.749,255.978 255.742,243.659 	"/>
	<path style="fill:#F0F0F0;" d="M191.744,336.802c-44.626,0-80.803-36.176-80.803-80.803s36.176-80.803,80.803-80.803
		c13.914,0,27.006,3.518,38.437,9.711c-17.931-17.535-42.454-28.358-69.514-28.358c-54.924,0-99.449,44.525-99.449,99.449
		s44.525,99.449,99.449,99.449c27.06,0,51.583-10.823,69.514-28.358C218.75,333.283,205.658,336.802,191.744,336.802z"/>
</g>
<g>
</g>
<g>
</g>
<g>
</g>
<g>
</g>
<g>
</g>
<g>
</g>
<g>
</g>
<g>
</g>
<g>
</g>
<g>
</g>
<g>
</g>
<g>
</g>
<g>
</g>
<g>
</g>
<g>
</g>
</svg>
